<svg width="73" height="35" viewBox="0 0 73 35" fill="none" xmlns="http://www.w3.org/2000/svg">
<path d="M60.0436 28.5628L60.489 30.5913H59.6563L58.7974 28.5628H60.0436Z" fill="white"/>
<path d="M59.7443 30.4585H60.3263L59.9371 28.6939H58.9958L59.7443 30.4585ZM60.6538 30.7223H59.5703L58.5991 28.4319H60.1485L60.6538 30.7223Z" fill="#1D1D1B"/>
<path d="M13.0997 28.5628L12.6543 30.5913H13.487L14.3459 28.5628H13.0997Z" fill="white"/>
<path d="M12.8172 30.4585H13.3992L14.1477 28.6939H13.2064L12.8172 30.4585ZM13.5732 30.7223H12.4897L12.9931 28.4319H14.5444L13.5732 30.7223Z" fill="#1D1D1B"/>
<mask id="mask0_6_1989" style="mask-type:luminance" maskUnits="userSpaceOnUse" x="7" y="26" width="59" height="9">
<path d="M7.73633 26.2874H65.7004V34.5677H7.73633V26.2874Z" fill="white"/>
</mask>
<g mask="url(#mask0_6_1989)">
<path d="M65.2755 34.4368L63.5858 26.746H61.2972V26.2913H12.3039L12.216 26.746H9.55693L7.86719 34.4368H9.39226L11.8455 28.6509H61.2972L63.7504 34.4368H65.2755Z" fill="white"/>
</g>
<mask id="mask1_6_1989" style="mask-type:luminance" maskUnits="userSpaceOnUse" x="7" y="25" width="59" height="10">
<path d="M7.25732 25.8084H65.7004V34.5678H7.25732V25.8084Z" fill="white"/>
</mask>
<g mask="url(#mask1_6_1989)">
<path d="M63.8366 34.304H65.1128L63.4792 26.877H61.1645V26.4242H12.4126L12.3246 26.877H9.66371L8.03011 34.304H9.30443L11.7577 28.52H61.3853L63.8366 34.304ZM65.4403 34.5679H63.6626L61.2094 28.7819H11.9335L9.48033 34.5679H7.70264L9.45226 26.615H12.1076L12.1955 26.1603H61.4283V26.615H63.6907L65.4403 34.5679Z" fill="#1D1D1B"/>
</g>
<path d="M7.86768 10.5633C7.86768 10.5633 8.38601 6.25189 8.65173 4.51349C8.91745 2.77696 10.1113 0.928162 12.3662 0.928162C14.621 0.928162 31.8647 0.928162 33.721 0.928162C35.5791 0.928162 36.5709 2.41955 36.5709 4.51349C36.5709 6.60743 36.5709 21.7328 36.5709 21.7328H10.2442L7.86768 10.5633Z" fill="white"/>
<mask id="mask2_6_1989" style="mask-type:luminance" maskUnits="userSpaceOnUse" x="7" y="0" width="30" height="22">
<path d="M7.25732 0.795288H36.9579V21.9761H7.25732V0.795288Z" fill="white"/>
</mask>
<g mask="url(#mask2_6_1989)">
<path d="M10.3503 21.6019H36.4394V4.51356C36.4394 2.38407 35.3971 1.05922 33.7204 1.05922H12.3657C10.1108 1.05922 9.02546 2.93047 8.7822 4.53414C8.52958 6.18646 8.03931 10.2246 8.00001 10.5577L10.3503 21.6019ZM36.7032 21.8639H10.137L10.1145 21.7609L7.73242 10.5689L7.73616 10.5484C7.74178 10.5035 8.25825 6.21266 8.52022 4.49485C8.80091 2.65353 10.0996 0.797241 12.3657 0.797241H33.7204C35.5599 0.797241 36.7032 2.22127 36.7032 4.51356V21.8639Z" fill="#1D1D1B"/>
</g>
<path d="M65.2759 10.5633C65.2759 10.5633 64.7576 6.25189 64.4918 4.51349C64.2261 2.77696 63.0323 0.928162 60.7774 0.928162C58.5225 0.928162 41.2789 0.928162 39.4207 0.928162C37.5644 0.928162 36.5708 2.41955 36.5708 4.51349C36.5708 6.60743 36.5708 21.7328 36.5708 21.7328H62.8994L65.2759 10.5633Z" fill="white"/>
<mask id="mask3_6_1989" style="mask-type:luminance" maskUnits="userSpaceOnUse" x="36" y="0" width="30" height="22">
<path d="M36 0.795288H65.7006V21.9761H36V0.795288Z" fill="white"/>
</mask>
<g mask="url(#mask3_6_1989)">
<path d="M36.7038 21.6019H62.7929L65.1432 10.5577C65.102 10.2246 64.6136 6.18646 64.361 4.53414C64.1177 2.93047 63.0305 1.05922 60.7775 1.05922H39.4209C37.7442 1.05922 36.7038 2.38407 36.7038 4.51356V21.6019ZM63.0062 21.8639H36.4399V4.51356C36.4399 2.22127 37.5833 0.797241 39.4209 0.797241H60.7775C63.0436 0.797241 64.3404 2.65353 64.623 4.49485C64.8849 6.21266 65.4014 10.5035 65.407 10.5484L65.4108 10.5689L65.4051 10.5914L63.0062 21.8639Z" fill="#1D1D1B"/>
</g>
<path d="M10.6538 19.9812C10.6538 19.9812 10.9101 18.2335 13.8929 18.2335H34.5497C35.6669 18.2335 36.5707 19.1336 36.5707 20.247V25.2339H11.4378L9.31396 22.4607L10.6538 19.9812Z" fill="white"/>
<path d="M11.5015 25.1029H36.4398V20.247C36.4398 19.2085 35.5921 18.3645 34.5498 18.3645H13.893C11.0711 18.3645 10.7942 19.9345 10.7829 20.0019L10.7698 20.043L9.47119 22.4476L11.5015 25.1029ZM36.7036 25.3649H11.3724L9.15869 22.4719L10.5266 19.9382C10.5715 19.7081 10.9869 18.1025 13.893 18.1025H34.5498C35.7362 18.1025 36.7036 19.0644 36.7036 20.247V25.3649Z" fill="#1D1D1B"/>
<path d="M62.4896 19.9812C62.4896 19.9812 62.2332 18.2335 59.2504 18.2335H38.5936C37.4765 18.2335 36.5708 19.1336 36.5708 20.247V25.2339H61.7055L63.8294 22.4607L62.4896 19.9812Z" fill="white"/>
<path d="M36.7038 25.1029H61.6402L63.6724 22.4476L62.3606 20.0019C62.3494 19.9326 62.0687 18.3645 59.2506 18.3645H38.5938C37.5515 18.3645 36.7038 19.2085 36.7038 20.247V25.1029ZM61.7712 25.3649H36.4399V20.247C36.4399 19.0644 37.4055 18.1025 38.5938 18.1025H59.2506C62.1566 18.1025 62.5721 19.7081 62.617 19.9382L63.9849 22.4719L61.7712 25.3649Z" fill="#1D1D1B"/>
<mask id="mask4_6_1989" style="mask-type:luminance" maskUnits="userSpaceOnUse" x="0" y="8" width="73" height="20">
<path d="M0.107422 8.5629H72.8862V27.7246H0.107422V8.5629Z" fill="white"/>
</mask>
<g mask="url(#mask4_6_1989)">
<path d="M70.1746 8.85474H67.6203C66.5481 8.85474 65.5994 9.54523 65.2757 10.5632L61.5743 22.1949H11.5668L7.86735 10.5632C7.54362 9.54523 6.59489 8.85474 5.52266 8.85474H2.9684C1.29175 8.85474 0.105373 10.4883 0.633068 12.0733L4.92199 24.9756C5.44407 26.5493 6.92049 27.6103 8.58591 27.6103H64.5571C66.2225 27.6103 67.6971 26.5493 68.221 24.9756L72.5099 12.0733C73.0358 10.4883 71.8513 8.85474 70.1746 8.85474Z" fill="white"/>
</g>
<mask id="mask5_6_1989" style="mask-type:luminance" maskUnits="userSpaceOnUse" x="0" y="8" width="73" height="21">
<path d="M0.107422 8.5629H72.8862V28.2036H0.107422V8.5629Z" fill="white"/>
</mask>
<g mask="url(#mask5_6_1989)">
<path d="M2.96874 8.98573C2.21088 8.98573 1.52412 9.33566 1.08064 9.94569C0.63902 10.5557 0.521131 11.3154 0.75878 12.0321L5.04583 24.9345C5.55294 26.4577 6.9751 27.4812 8.58625 27.4812H64.5574C66.1686 27.4812 67.5907 26.4577 68.096 24.9345L72.3849 12.0321C72.6225 11.3154 72.5047 10.5557 72.0612 9.94569C71.6196 9.33566 70.9309 8.98573 70.1749 8.98573H67.6207C66.6008 8.98573 65.7101 9.63506 65.4014 10.6025L61.672 22.3259H11.4717L7.74044 10.6025C7.43356 9.63506 6.54097 8.98573 5.523 8.98573H2.96874ZM64.5574 27.7432H8.58625C6.86095 27.7432 5.33775 26.6467 4.79695 25.0168L0.508032 12.1145C0.244185 11.3173 0.375173 10.4715 0.867313 9.79224C1.35945 9.11298 2.12667 8.72375 2.96874 8.72375H5.523C6.65698 8.72375 7.65062 9.44606 7.99306 10.5239L11.6645 22.0639H61.4792L65.1506 10.5239C65.4931 9.44606 66.4848 8.72375 67.6207 8.72375H70.1749C71.017 8.72375 71.7824 9.11298 72.2764 9.79224C72.7685 10.4715 72.8995 11.3173 72.6356 12.1145L68.3467 25.0168C67.8041 26.6467 66.2827 27.7432 64.5574 27.7432Z" fill="#1D1D1B"/>
</g>
<path d="M60.0436 28.5628L60.489 30.5913H59.6563L58.7974 28.5628H60.0436Z" fill="#0F5CE2"/>
<path d="M59.7443 30.4585H60.3263L59.9371 28.6939H58.9958L59.7443 30.4585ZM60.6538 30.7223H59.5703L58.5991 28.4319H60.1485L60.6538 30.7223Z" fill="white"/>
<mask id="mask6_6_1989" style="mask-type:luminance" maskUnits="userSpaceOnUse" x="36" y="26" width="30" height="9">
<path d="M36.5391 26.2874H65.7007V34.2084H36.5391V26.2874Z" fill="white"/>
</mask>
<g mask="url(#mask6_6_1989)">
<path d="M65.276 34.4368L63.5862 26.746H61.2977V26.2913H12.3044L12.2165 26.746H9.55742L7.86768 34.4368H9.39275L11.846 28.6509H61.2977L63.7509 34.4368H65.276Z" fill="#0F5CE2"/>
</g>
<mask id="mask7_6_1989" style="mask-type:luminance" maskUnits="userSpaceOnUse" x="36" y="25" width="30" height="10">
<path d="M36.5391 25.8084H65.7007V34.2085H36.5391V25.8084Z" fill="white"/>
</mask>
<g mask="url(#mask7_6_1989)">
<path d="M63.8371 34.304H65.1133L63.4797 26.877H61.165V26.4242H12.4131L12.3251 26.877H9.6642L8.0306 34.304H9.30492L11.7581 28.52H61.3858L63.8371 34.304ZM65.4408 34.5679H63.6631L61.2099 28.7819H11.934L9.48082 34.5679H7.70312L9.45275 26.615H12.1081L12.196 26.1603H61.4288V26.615H63.6911L65.4408 34.5679Z" fill="white"/>
</g>
<mask id="mask8_6_1989" style="mask-type:luminance" maskUnits="userSpaceOnUse" x="36" y="0" width="1" height="22">
<path d="M36.5391 0.898163H36.9582V21.976H36.5391V0.898163Z" fill="white"/>
</mask>
<g mask="url(#mask8_6_1989)">
<path d="M7.86768 10.5631C7.86768 10.5631 8.38601 6.25177 8.65173 4.51337C8.91745 2.77684 10.1113 0.92804 12.3662 0.92804C14.621 0.92804 31.8647 0.92804 33.721 0.92804C35.5791 0.92804 36.5709 2.41943 36.5709 4.51337C36.5709 6.60731 36.5709 21.7327 36.5709 21.7327H10.2442L7.86768 10.5631Z" fill="#0F5CE2"/>
</g>
<mask id="mask9_6_1989" style="mask-type:luminance" maskUnits="userSpaceOnUse" x="36" y="0" width="1" height="22">
<path d="M36.5391 0.795288H36.9582V21.9761H36.5391V0.795288Z" fill="white"/>
</mask>
<g mask="url(#mask9_6_1989)">
<path d="M10.3508 21.6019H36.4399V4.51356C36.4399 2.38407 35.3976 1.05922 33.7209 1.05922H12.3661C10.1113 1.05922 9.02595 2.93047 8.78269 4.53414C8.53007 6.18646 8.0398 10.2246 8.0005 10.5577L10.3508 21.6019ZM36.7037 21.8639H10.1375L10.115 21.7609L7.73291 10.5689L7.73665 10.5484C7.74227 10.5035 8.25873 6.21266 8.52071 4.49485C8.8014 2.65353 10.1001 0.797241 12.3661 0.797241H33.7209C35.5604 0.797241 36.7037 2.22127 36.7037 4.51356V21.8639Z" fill="white"/>
</g>
<mask id="mask10_6_1989" style="mask-type:luminance" maskUnits="userSpaceOnUse" x="36" y="0" width="30" height="22">
<path d="M36.5391 0.898163H65.7007V21.976H36.5391V0.898163Z" fill="white"/>
</mask>
<g mask="url(#mask10_6_1989)">
<path d="M65.2759 10.5631C65.2759 10.5631 64.7576 6.25177 64.4918 4.51337C64.2261 2.77684 63.0323 0.92804 60.7774 0.92804C58.5225 0.92804 41.2789 0.92804 39.4207 0.92804C37.5644 0.92804 36.5708 2.41943 36.5708 4.51337C36.5708 6.60731 36.5708 21.7327 36.5708 21.7327H62.8994L65.2759 10.5631Z" fill="#0F5CE2"/>
</g>
<mask id="mask11_6_1989" style="mask-type:luminance" maskUnits="userSpaceOnUse" x="36" y="0" width="30" height="22">
<path d="M36.5391 0.795288H65.7007V21.9761H36.5391V0.795288Z" fill="white"/>
</mask>
<g mask="url(#mask11_6_1989)">
<path d="M36.7038 21.6019H62.7929L65.1432 10.5577C65.102 10.2246 64.6136 6.18646 64.361 4.53414C64.1177 2.93047 63.0305 1.05922 60.7775 1.05922H39.4209C37.7442 1.05922 36.7038 2.38407 36.7038 4.51356V21.6019ZM63.0062 21.8639H36.4399V4.51356C36.4399 2.22127 37.5833 0.797241 39.4209 0.797241H60.7775C63.0436 0.797241 64.3404 2.65353 64.623 4.49485C64.8849 6.21266 65.4014 10.5035 65.407 10.5484L65.4108 10.5689L65.4051 10.5914L63.0062 21.8639Z" fill="white"/>
</g>
<mask id="mask12_6_1989" style="mask-type:luminance" maskUnits="userSpaceOnUse" x="36" y="18" width="1" height="8">
<path d="M36.5391 18.1437H36.9582V25.3293H36.5391V18.1437Z" fill="white"/>
</mask>
<g mask="url(#mask12_6_1989)">
<path d="M10.6538 19.9811C10.6538 19.9811 10.9101 18.2334 13.8929 18.2334H34.5497C35.6669 18.2334 36.5707 19.1334 36.5707 20.2468V25.2337H11.4378L9.31396 22.4605L10.6538 19.9811Z" fill="#0F5CE2"/>
</g>
<mask id="mask13_6_1989" style="mask-type:luminance" maskUnits="userSpaceOnUse" x="36" y="17" width="1" height="9">
<path d="M36.5391 17.6647H36.9582V25.8084H36.5391V17.6647Z" fill="white"/>
</mask>
<g mask="url(#mask13_6_1989)">
<path d="M11.5015 25.103H36.4398V20.2471C36.4398 19.2086 35.5921 18.3646 34.5498 18.3646H13.893C11.0711 18.3646 10.7942 19.9346 10.7829 20.002L10.7698 20.0432L9.47119 22.4477L11.5015 25.103ZM36.7036 25.365H11.3724L9.15869 22.472L10.5266 19.9384C10.5715 19.7082 10.9869 18.1027 13.893 18.1027H34.5498C35.7362 18.1027 36.7036 19.0645 36.7036 20.2471V25.365Z" fill="white"/>
</g>
<mask id="mask14_6_1989" style="mask-type:luminance" maskUnits="userSpaceOnUse" x="36" y="18" width="29" height="8">
<path d="M36.5391 18.1437H64.2636V25.3293H36.5391V18.1437Z" fill="white"/>
</mask>
<g mask="url(#mask14_6_1989)">
<path d="M62.4896 19.9811C62.4896 19.9811 62.2332 18.2334 59.2504 18.2334H38.5936C37.4765 18.2334 36.5708 19.1334 36.5708 20.2468V25.2337H61.7055L63.8294 22.4605L62.4896 19.9811Z" fill="#0F5CE2"/>
</g>
<mask id="mask15_6_1989" style="mask-type:luminance" maskUnits="userSpaceOnUse" x="36" y="17" width="29" height="9">
<path d="M36.5391 17.6647H64.2636V25.8084H36.5391V17.6647Z" fill="white"/>
</mask>
<g mask="url(#mask15_6_1989)">
<path d="M36.7038 25.103H61.6402L63.6724 22.4477L62.3606 20.002C62.3494 19.9328 62.0687 18.3646 59.2506 18.3646H38.5938C37.5515 18.3646 36.7038 19.2086 36.7038 20.2471V25.103ZM61.7712 25.365H36.4399V20.2471C36.4399 19.0645 37.4055 18.1027 38.5938 18.1027H59.2506C62.1566 18.1027 62.5721 19.7082 62.617 19.9384L63.9849 22.472L61.7712 25.365Z" fill="white"/>
</g>
<mask id="mask16_6_1989" style="mask-type:luminance" maskUnits="userSpaceOnUse" x="36" y="8" width="37" height="20">
<path d="M36.5391 8.5629H72.8265V27.7246H36.5391V8.5629Z" fill="white"/>
</mask>
<g mask="url(#mask16_6_1989)">
<path d="M70.1751 8.85474H67.6208C66.5486 8.85474 65.5999 9.54523 65.2761 10.5632L61.5748 22.1949H11.5673L7.86784 10.5632C7.54411 9.54523 6.59538 8.85474 5.52315 8.85474H2.96889C1.29224 8.85474 0.105861 10.4883 0.633556 12.0733L4.92248 24.9756C5.44456 26.5493 6.92098 27.6103 8.5864 27.6103H64.5576C66.223 27.6103 67.6976 26.5493 68.2215 24.9756L72.5104 12.0733C73.0363 10.4883 71.8517 8.85474 70.1751 8.85474Z" fill="#0F5CE2"/>
</g>
<mask id="mask17_6_1989" style="mask-type:luminance" maskUnits="userSpaceOnUse" x="36" y="8" width="37" height="21">
<path d="M36.5391 8.5629H72.8265V28.2036H36.5391V8.5629Z" fill="white"/>
</mask>
<g mask="url(#mask17_6_1989)">
<path d="M2.96874 8.98573C2.21088 8.98573 1.52412 9.33566 1.08064 9.94569C0.63902 10.5557 0.521131 11.3154 0.75878 12.0321L5.04583 24.9345C5.55294 26.4577 6.9751 27.4812 8.58625 27.4812H64.5574C66.1686 27.4812 67.5907 26.4577 68.096 24.9345L72.3849 12.0321C72.6225 11.3154 72.5047 10.5557 72.0612 9.94569C71.6196 9.33566 70.9309 8.98573 70.1749 8.98573H67.6207C66.6008 8.98573 65.7101 9.63506 65.4014 10.6025L61.672 22.3259H11.4717L7.74044 10.6025C7.43356 9.63506 6.54097 8.98573 5.523 8.98573H2.96874ZM64.5574 27.7432H8.58625C6.86095 27.7432 5.33775 26.6467 4.79695 25.0168L0.508032 12.1145C0.244185 11.3173 0.375173 10.4715 0.867313 9.79224C1.35945 9.11298 2.12667 8.72375 2.96874 8.72375H5.523C6.65698 8.72375 7.65062 9.44606 7.99306 10.5239L11.6645 22.0639H61.4792L65.1506 10.5239C65.4931 9.44606 66.4848 8.72375 67.6207 8.72375H70.1749C71.017 8.72375 71.7824 9.11298 72.2764 9.79224C72.7685 10.4715 72.8995 11.3173 72.6356 12.1145L68.3467 25.0168C67.8041 26.6467 66.2827 27.7432 64.5574 27.7432Z" fill="white"/>
</g>
</svg>
