<svg width="120" height="61" viewBox="0 0 120 61" fill="none" xmlns="http://www.w3.org/2000/svg">
<path d="M84.0436 38.5628L84.489 40.5913H83.6563L82.7974 38.5628H84.0436Z" fill="white"/>
<path d="M83.7443 40.4585H84.3263L83.9371 38.6939H82.9958L83.7443 40.4585ZM84.6538 40.7223H83.5703L82.5991 38.4319H84.1485L84.6538 40.7223Z" fill="#1D1D1B"/>
<path d="M37.0997 38.5628L36.6543 40.5913H37.487L38.3459 38.5628H37.0997Z" fill="white"/>
<path d="M36.8172 40.4585H37.3992L38.1477 38.6939H37.2064L36.8172 40.4585ZM37.5732 40.7223H36.4897L36.9931 38.4319H38.5444L37.5732 40.7223Z" fill="#1D1D1B"/>
<mask id="mask0_1_386" style="mask-type:luminance" maskUnits="userSpaceOnUse" x="31" y="36" width="59" height="9">
<path d="M31.7363 36.2874H89.7004V44.5677H31.7363V36.2874Z" fill="white"/>
</mask>
<g mask="url(#mask0_1_386)">
<path d="M89.2755 44.4369L87.5858 36.746H85.2972V36.2913H36.3039L36.216 36.746H33.5569L31.8672 44.4369H33.3923L35.8455 38.6509H85.2972L87.7504 44.4369H89.2755Z" fill="white"/>
</g>
<mask id="mask1_1_386" style="mask-type:luminance" maskUnits="userSpaceOnUse" x="31" y="35" width="59" height="10">
<path d="M31.2573 35.8084H89.7004V44.5678H31.2573V35.8084Z" fill="white"/>
</mask>
<g mask="url(#mask1_1_386)">
<path d="M87.8366 44.304H89.1128L87.4792 36.877H85.1645V36.4241H36.4126L36.3246 36.877H33.6637L32.0301 44.304H33.3044L35.7577 38.52H85.3853L87.8366 44.304ZM89.4403 44.5679H87.6626L85.2094 38.7819H35.9335L33.4803 44.5679H31.7026L33.4523 36.615H36.1076L36.1955 36.1603H85.4283V36.615H87.6907L89.4403 44.5679Z" fill="#1D1D1B"/>
</g>
<path d="M31.8677 20.5633C31.8677 20.5633 32.386 16.2519 32.6517 14.5135C32.9175 12.777 34.1113 10.9282 36.3662 10.9282C38.621 10.9282 55.8647 10.9282 57.721 10.9282C59.5791 10.9282 60.5709 12.4196 60.5709 14.5135C60.5709 16.6074 60.5709 31.7328 60.5709 31.7328H34.2442L31.8677 20.5633Z" fill="white"/>
<mask id="mask2_1_386" style="mask-type:luminance" maskUnits="userSpaceOnUse" x="31" y="10" width="30" height="22">
<path d="M31.2573 10.7953H60.9579V31.976H31.2573V10.7953Z" fill="white"/>
</mask>
<g mask="url(#mask2_1_386)">
<path d="M34.3503 31.6019H60.4394V14.5136C60.4394 12.3841 59.3971 11.0592 57.7204 11.0592H36.3657C34.1108 11.0592 33.0255 12.9305 32.7822 14.5341C32.5296 16.1865 32.0393 20.2246 32 20.5577L34.3503 31.6019ZM60.7032 31.8639H34.137L34.1145 31.7609L31.7324 20.569L31.7362 20.5484C31.7418 20.5035 32.2582 16.2127 32.5202 14.4948C32.8009 12.6535 34.0996 10.7972 36.3657 10.7972H57.7204C59.5599 10.7972 60.7032 12.2213 60.7032 14.5136V31.8639Z" fill="#1D1D1B"/>
</g>
<path d="M89.2759 20.5633C89.2759 20.5633 88.7576 16.2519 88.4918 14.5135C88.2261 12.777 87.0323 10.9282 84.7774 10.9282C82.5225 10.9282 65.2789 10.9282 63.4207 10.9282C61.5644 10.9282 60.5708 12.4196 60.5708 14.5135C60.5708 16.6074 60.5708 31.7328 60.5708 31.7328H86.8994L89.2759 20.5633Z" fill="white"/>
<mask id="mask3_1_386" style="mask-type:luminance" maskUnits="userSpaceOnUse" x="60" y="10" width="30" height="22">
<path d="M60 10.7953H89.7006V31.976H60V10.7953Z" fill="white"/>
</mask>
<g mask="url(#mask3_1_386)">
<path d="M60.7038 31.6019H86.7929L89.1432 20.5577C89.102 20.2246 88.6136 16.1865 88.361 14.5341C88.1177 12.9305 87.0305 11.0592 84.7775 11.0592H63.4209C61.7442 11.0592 60.7038 12.3841 60.7038 14.5136V31.6019ZM87.0062 31.8639H60.4399V14.5136C60.4399 12.2213 61.5833 10.7972 63.4209 10.7972H84.7775C87.0436 10.7972 88.3404 12.6535 88.623 14.4948C88.8849 16.2127 89.4014 20.5035 89.407 20.5484L89.4108 20.569L89.4051 20.5914L87.0062 31.8639Z" fill="#1D1D1B"/>
</g>
<path d="M34.6538 29.9813C34.6538 29.9813 34.9101 28.2335 37.8929 28.2335H58.5497C59.6669 28.2335 60.5707 29.1336 60.5707 30.247V35.2339H35.4378L33.314 32.4607L34.6538 29.9813Z" fill="white"/>
<path d="M35.5015 35.1029H60.4398V30.247C60.4398 29.2085 59.5921 28.3645 58.5498 28.3645H37.893C35.0711 28.3645 34.7942 29.9345 34.7829 30.0019L34.7698 30.043L33.4712 32.4476L35.5015 35.1029ZM60.7036 35.3649H35.3724L33.1587 32.4719L34.5266 29.9383C34.5715 29.7081 34.9869 28.1025 37.893 28.1025H58.5498C59.7362 28.1025 60.7036 29.0644 60.7036 30.247V35.3649Z" fill="#1D1D1B"/>
<path d="M86.4896 29.9813C86.4896 29.9813 86.2332 28.2335 83.2504 28.2335H62.5936C61.4765 28.2335 60.5708 29.1336 60.5708 30.247V35.2339H85.7055L87.8294 32.4607L86.4896 29.9813Z" fill="white"/>
<path d="M60.7038 35.1029H85.6402L87.6724 32.4476L86.3606 30.0019C86.3494 29.9326 86.0687 28.3645 83.2506 28.3645H62.5938C61.5515 28.3645 60.7038 29.2085 60.7038 30.247V35.1029ZM85.7712 35.3649H60.4399V30.247C60.4399 29.0644 61.4055 28.1025 62.5938 28.1025H83.2506C86.1566 28.1025 86.5721 29.7081 86.617 29.9383L87.9849 32.4719L85.7712 35.3649Z" fill="#1D1D1B"/>
<mask id="mask4_1_386" style="mask-type:luminance" maskUnits="userSpaceOnUse" x="24" y="18" width="73" height="20">
<path d="M24.1074 18.5629H96.8862V37.7246H24.1074V18.5629Z" fill="white"/>
</mask>
<g mask="url(#mask4_1_386)">
<path d="M94.1746 18.8547H91.6203C90.5481 18.8547 89.5994 19.5452 89.2757 20.5632L85.5743 32.1949H35.5668L31.8673 20.5632C31.5436 19.5452 30.5949 18.8547 29.5227 18.8547H26.9684C25.2918 18.8547 24.1054 20.4883 24.6331 22.0733L28.922 34.9756C29.4441 36.5493 30.9205 37.6103 32.5859 37.6103H88.5571C90.2225 37.6103 91.6971 36.5493 92.221 34.9756L96.5099 22.0733C97.0358 20.4883 95.8513 18.8547 94.1746 18.8547Z" fill="white"/>
</g>
<mask id="mask5_1_386" style="mask-type:luminance" maskUnits="userSpaceOnUse" x="24" y="18" width="73" height="21">
<path d="M24.1074 18.5629H96.8862V38.2036H24.1074V18.5629Z" fill="white"/>
</mask>
<g mask="url(#mask5_1_386)">
<path d="M26.9687 18.9858C26.2109 18.9858 25.5241 19.3357 25.0806 19.9457C24.639 20.5557 24.5211 21.3155 24.7588 22.0322L29.0458 34.9345C29.5529 36.4577 30.9751 37.4813 32.5862 37.4813H88.5574C90.1686 37.4813 91.5907 36.4577 92.096 34.9345L96.3849 22.0322C96.6225 21.3155 96.5047 20.5557 96.0612 19.9457C95.6196 19.3357 94.9309 18.9858 94.1749 18.9858H91.6207C90.6008 18.9858 89.7101 19.6351 89.4014 20.6025L85.672 32.3259H35.4717L31.7404 20.6025C31.4336 19.6351 30.541 18.9858 29.523 18.9858H26.9687ZM88.5574 37.7432H32.5862C30.861 37.7432 29.3377 36.6467 28.797 35.0168L24.508 22.1145C24.2442 21.3173 24.3752 20.4715 24.8673 19.7923C25.3595 19.113 26.1267 18.7238 26.9687 18.7238H29.523C30.657 18.7238 31.6506 19.4461 31.9931 20.5239L35.6645 32.064H85.4792L89.1506 20.5239C89.4931 19.4461 90.4848 18.7238 91.6207 18.7238H94.1749C95.017 18.7238 95.7824 19.113 96.2764 19.7923C96.7685 20.4715 96.8995 21.3173 96.6356 22.1145L92.3467 35.0168C91.8041 36.6467 90.2827 37.7432 88.5574 37.7432Z" fill="#1D1D1B"/>
</g>
<path d="M84.0436 38.5628L84.489 40.5913H83.6563L82.7974 38.5628H84.0436Z" fill="#0F5CE2"/>
<path d="M83.7443 40.4585H84.3263L83.9371 38.6939H82.9958L83.7443 40.4585ZM84.6538 40.7223H83.5703L82.5991 38.4319H84.1485L84.6538 40.7223Z" fill="white"/>
<mask id="mask6_1_386" style="mask-type:luminance" maskUnits="userSpaceOnUse" x="60" y="36" width="30" height="9">
<path d="M60.5391 36.2874H89.7007V44.2085H60.5391V36.2874Z" fill="white"/>
</mask>
<g mask="url(#mask6_1_386)">
<path d="M89.276 44.4369L87.5862 36.746H85.2977V36.2913H36.3044L36.2165 36.746H33.5574L31.8677 44.4369H33.3928L35.846 38.6509H85.2977L87.7509 44.4369H89.276Z" fill="#0F5CE2"/>
</g>
<mask id="mask7_1_386" style="mask-type:luminance" maskUnits="userSpaceOnUse" x="60" y="35" width="30" height="10">
<path d="M60.5391 35.8084H89.7007V44.2085H60.5391V35.8084Z" fill="white"/>
</mask>
<g mask="url(#mask7_1_386)">
<path d="M87.8371 44.304H89.1133L87.4797 36.877H85.165V36.4241H36.4131L36.3251 36.877H33.6642L32.0306 44.304H33.3049L35.7581 38.52H85.3858L87.8371 44.304ZM89.4408 44.5679H87.6631L85.2099 38.7819H35.934L33.4808 44.5679H31.7031L33.4528 36.615H36.1081L36.196 36.1603H85.4288V36.615H87.6911L89.4408 44.5679Z" fill="white"/>
</g>
<mask id="mask8_1_386" style="mask-type:luminance" maskUnits="userSpaceOnUse" x="60" y="10" width="1" height="22">
<path d="M60.5391 10.8982H60.9582V31.976H60.5391V10.8982Z" fill="white"/>
</mask>
<g mask="url(#mask8_1_386)">
<path d="M31.8677 20.5632C31.8677 20.5632 32.386 16.2518 32.6517 14.5134C32.9175 12.7769 34.1113 10.9281 36.3662 10.9281C38.621 10.9281 55.8647 10.9281 57.721 10.9281C59.5791 10.9281 60.5709 12.4195 60.5709 14.5134C60.5709 16.6073 60.5709 31.7327 60.5709 31.7327H34.2442L31.8677 20.5632Z" fill="#0F5CE2"/>
</g>
<mask id="mask9_1_386" style="mask-type:luminance" maskUnits="userSpaceOnUse" x="60" y="10" width="1" height="22">
<path d="M60.5391 10.7953H60.9582V31.976H60.5391V10.7953Z" fill="white"/>
</mask>
<g mask="url(#mask9_1_386)">
<path d="M34.3508 31.6019H60.4399V14.5136C60.4399 12.3841 59.3976 11.0592 57.7209 11.0592H36.3661C34.1113 11.0592 33.0259 12.9305 32.7827 14.5341C32.5301 16.1865 32.0398 20.2246 32.0005 20.5577L34.3508 31.6019ZM60.7037 31.8639H34.1375L34.115 31.7609L31.7329 20.569L31.7367 20.5484C31.7423 20.5035 32.2587 16.2127 32.5207 14.4948C32.8014 12.6535 34.1001 10.7972 36.3661 10.7972H57.7209C59.5604 10.7972 60.7037 12.2213 60.7037 14.5136V31.8639Z" fill="white"/>
</g>
<mask id="mask10_1_386" style="mask-type:luminance" maskUnits="userSpaceOnUse" x="60" y="10" width="30" height="22">
<path d="M60.5391 10.8982H89.7007V31.976H60.5391V10.8982Z" fill="white"/>
</mask>
<g mask="url(#mask10_1_386)">
<path d="M89.2759 20.5632C89.2759 20.5632 88.7576 16.2518 88.4918 14.5134C88.2261 12.7769 87.0323 10.9281 84.7774 10.9281C82.5225 10.9281 65.2789 10.9281 63.4207 10.9281C61.5644 10.9281 60.5708 12.4195 60.5708 14.5134C60.5708 16.6073 60.5708 31.7327 60.5708 31.7327H86.8994L89.2759 20.5632Z" fill="#0F5CE2"/>
</g>
<mask id="mask11_1_386" style="mask-type:luminance" maskUnits="userSpaceOnUse" x="60" y="10" width="30" height="22">
<path d="M60.5391 10.7953H89.7007V31.976H60.5391V10.7953Z" fill="white"/>
</mask>
<g mask="url(#mask11_1_386)">
<path d="M60.7038 31.6019H86.7929L89.1432 20.5577C89.102 20.2246 88.6136 16.1865 88.361 14.5341C88.1177 12.9305 87.0305 11.0592 84.7775 11.0592H63.4209C61.7442 11.0592 60.7038 12.3841 60.7038 14.5136V31.6019ZM87.0062 31.8639H60.4399V14.5136C60.4399 12.2213 61.5833 10.7972 63.4209 10.7972H84.7775C87.0436 10.7972 88.3404 12.6535 88.623 14.4948C88.8849 16.2127 89.4014 20.5035 89.407 20.5484L89.4108 20.569L89.4051 20.5914L87.0062 31.8639Z" fill="white"/>
</g>
<mask id="mask12_1_386" style="mask-type:luminance" maskUnits="userSpaceOnUse" x="60" y="28" width="1" height="8">
<path d="M60.5391 28.1437H60.9582V35.3293H60.5391V28.1437Z" fill="white"/>
</mask>
<g mask="url(#mask12_1_386)">
<path d="M34.6538 29.9811C34.6538 29.9811 34.9101 28.2334 37.8929 28.2334H58.5497C59.6669 28.2334 60.5707 29.1335 60.5707 30.2469V35.2338H35.4378L33.314 32.4606L34.6538 29.9811Z" fill="#0F5CE2"/>
</g>
<mask id="mask13_1_386" style="mask-type:luminance" maskUnits="userSpaceOnUse" x="60" y="27" width="1" height="9">
<path d="M60.5391 27.6647H60.9582V35.8084H60.5391V27.6647Z" fill="white"/>
</mask>
<g mask="url(#mask13_1_386)">
<path d="M35.5015 35.103H60.4398V30.2471C60.4398 29.2086 59.5921 28.3646 58.5498 28.3646H37.893C35.0711 28.3646 34.7942 29.9346 34.7829 30.002L34.7698 30.0432L33.4712 32.4477L35.5015 35.103ZM60.7036 35.365H35.3724L33.1587 32.4721L34.5266 29.9384C34.5715 29.7082 34.9869 28.1027 37.893 28.1027H58.5498C59.7362 28.1027 60.7036 29.0645 60.7036 30.2471V35.365Z" fill="white"/>
</g>
<mask id="mask14_1_386" style="mask-type:luminance" maskUnits="userSpaceOnUse" x="60" y="28" width="29" height="8">
<path d="M60.5391 28.1437H88.2636V35.3293H60.5391V28.1437Z" fill="white"/>
</mask>
<g mask="url(#mask14_1_386)">
<path d="M86.4896 29.9811C86.4896 29.9811 86.2332 28.2334 83.2504 28.2334H62.5936C61.4765 28.2334 60.5708 29.1335 60.5708 30.2469V35.2338H85.7055L87.8294 32.4606L86.4896 29.9811Z" fill="#0F5CE2"/>
</g>
<mask id="mask15_1_386" style="mask-type:luminance" maskUnits="userSpaceOnUse" x="60" y="27" width="29" height="9">
<path d="M60.5391 27.6647H88.2636V35.8084H60.5391V27.6647Z" fill="white"/>
</mask>
<g mask="url(#mask15_1_386)">
<path d="M60.7038 35.103H85.6402L87.6724 32.4477L86.3606 30.002C86.3494 29.9328 86.0687 28.3646 83.2506 28.3646H62.5938C61.5515 28.3646 60.7038 29.2086 60.7038 30.2471V35.103ZM85.7712 35.365H60.4399V30.2471C60.4399 29.0645 61.4055 28.1027 62.5938 28.1027H83.2506C86.1566 28.1027 86.5721 29.7082 86.617 29.9384L87.9849 32.4721L85.7712 35.365Z" fill="white"/>
</g>
<mask id="mask16_1_386" style="mask-type:luminance" maskUnits="userSpaceOnUse" x="60" y="18" width="37" height="20">
<path d="M60.5391 18.5629H96.8265V37.7246H60.5391V18.5629Z" fill="white"/>
</mask>
<g mask="url(#mask16_1_386)">
<path d="M94.1751 18.8547H91.6208C90.5486 18.8547 89.5999 19.5452 89.2761 20.5632L85.5748 32.1949H35.5673L31.8678 20.5632C31.5441 19.5452 30.5954 18.8547 29.5232 18.8547H26.9689C25.2922 18.8547 24.1059 20.4883 24.6336 22.0733L28.9225 34.9756C29.4446 36.5493 30.921 37.6103 32.5864 37.6103H88.5576C90.223 37.6103 91.6976 36.5493 92.2215 34.9756L96.5104 22.0733C97.0363 20.4883 95.8517 18.8547 94.1751 18.8547Z" fill="#0F5CE2"/>
</g>
<mask id="mask17_1_386" style="mask-type:luminance" maskUnits="userSpaceOnUse" x="60" y="18" width="37" height="21">
<path d="M60.5391 18.5629H96.8265V38.2036H60.5391V18.5629Z" fill="white"/>
</mask>
<g mask="url(#mask17_1_386)">
<path d="M26.9687 18.9858C26.2109 18.9858 25.5241 19.3357 25.0806 19.9457C24.639 20.5557 24.5211 21.3155 24.7588 22.0322L29.0458 34.9345C29.5529 36.4577 30.9751 37.4813 32.5862 37.4813H88.5574C90.1686 37.4813 91.5907 36.4577 92.096 34.9345L96.3849 22.0322C96.6225 21.3155 96.5047 20.5557 96.0612 19.9457C95.6196 19.3357 94.9309 18.9858 94.1749 18.9858H91.6207C90.6008 18.9858 89.7101 19.6351 89.4014 20.6025L85.672 32.3259H35.4717L31.7404 20.6025C31.4336 19.6351 30.541 18.9858 29.523 18.9858H26.9687ZM88.5574 37.7432H32.5862C30.861 37.7432 29.3377 36.6467 28.797 35.0168L24.508 22.1145C24.2442 21.3173 24.3752 20.4715 24.8673 19.7923C25.3595 19.113 26.1267 18.7238 26.9687 18.7238H29.523C30.657 18.7238 31.6506 19.4461 31.9931 20.5239L35.6645 32.064H85.4792L89.1506 20.5239C89.4931 19.4461 90.4848 18.7238 91.6207 18.7238H94.1749C95.017 18.7238 95.7824 19.113 96.2764 19.7923C96.7685 20.4715 96.8995 21.3173 96.6356 22.1145L92.3467 35.0168C91.8041 36.6467 90.2827 37.7432 88.5574 37.7432Z" fill="white"/>
</g>
<path d="M4.00767 50.3963C4.98447 50.3963 5.69929 50.6097 6.14839 51.0326C6.59749 51.4517 6.82204 52.0318 6.82204 52.7691C6.82204 53.2144 6.72848 53.628 6.54509 54.0116C6.35984 54.3971 6.05295 54.7058 5.62444 54.9397C5.19405 55.1699 4.61396 55.2841 3.88042 55.2841H3.18432V57.9862H1.58252V50.3963H4.00767ZM3.91785 51.7137H3.18432V53.9667H3.71575C4.1686 53.9667 4.52788 53.8769 4.7936 53.6972C5.06306 53.5176 5.19779 53.2257 5.19779 52.8215C5.19779 52.0842 4.77114 51.7137 3.91785 51.7137Z" fill="black"/>
<path d="M15.1504 57.9862H10.7866V50.3963H15.1504V51.7137H12.3884V53.3829H14.9633V54.7002H12.3884V56.6613H15.1504V57.9862Z" fill="black"/>
<path d="M22.4791 57.9862L20.6453 52.0356H20.6079C20.6116 52.1759 20.6229 52.3873 20.6378 52.6718C20.6528 52.9562 20.664 53.2612 20.6753 53.585C20.6902 53.9106 20.6977 54.2025 20.6977 54.4607V57.9862H19.2681V50.3963H21.4537L23.2501 56.1972H23.2875L25.1887 50.3963H27.3744V57.9862H25.8773V54.3933C25.8773 54.1538 25.8811 53.8806 25.8923 53.57C25.9017 53.2556 25.911 52.96 25.9223 52.6793C25.9372 52.4004 25.9466 52.189 25.9522 52.043H25.9073L23.9537 57.9862H22.4791Z" fill="black"/>
<path d="M38.7061 54.1838C38.7061 54.9678 38.5751 55.6546 38.3169 56.2421C38.0568 56.826 37.6601 57.2807 37.1268 57.6044C36.5916 57.93 35.9142 58.0909 35.0909 58.0909C34.2675 58.0909 33.5882 57.93 33.0549 57.6044C32.5197 57.2807 32.123 56.8241 31.8648 56.2346C31.6047 55.6471 31.4756 54.9585 31.4756 54.1688C31.4756 53.3866 31.6047 52.7055 31.8648 52.1254C32.123 51.5415 32.5197 51.0906 33.0549 50.7706C33.5882 50.4468 34.2712 50.284 35.1058 50.284C35.9236 50.284 36.5972 50.4468 37.1268 50.7706C37.6601 51.0906 38.0568 51.5415 38.3169 52.1254C38.5751 52.7092 38.7061 53.396 38.7061 54.1838ZM33.1672 54.1838C33.1672 54.9772 33.3188 55.604 33.6238 56.0625C33.9269 56.5172 34.4172 56.7436 35.0909 56.7436C35.7795 56.7436 36.2697 56.5172 36.5654 56.0625C36.8648 55.604 37.0145 54.9772 37.0145 54.1838C37.0145 53.3903 36.8648 52.7653 36.5654 52.305C36.2697 51.8466 35.7832 51.6164 35.1058 51.6164C34.4209 51.6164 33.9269 51.8466 33.6238 52.305C33.3188 52.7653 33.1672 53.3903 33.1672 54.1838Z" fill="black"/>
<path d="M49.0217 57.9862H47.4199V54.7152H44.4109V57.9862H42.8091V50.3963H44.4109V53.3754H47.4199V50.3963H49.0217V57.9862Z" fill="black"/>
<path d="M56.3884 57.9862H54.7866V51.7362H52.7207V50.3963H58.4542V51.7362H56.3884V57.9862Z" fill="black"/>
<path d="M70.0197 57.9862L68.1858 52.0356H68.1484C68.1522 52.1759 68.1634 52.3873 68.1784 52.6718C68.1933 52.9562 68.2046 53.2612 68.2158 53.585C68.2307 53.9106 68.2382 54.2025 68.2382 54.4607V57.9862H66.8086V50.3963H68.9942L70.7906 56.1972H70.8281L72.7293 50.3963H74.9149V57.9862H73.4179V54.3933C73.4179 54.1538 73.4216 53.8806 73.4328 53.57C73.4422 53.2556 73.4516 52.96 73.4628 52.6793C73.4778 52.4004 73.4871 52.189 73.4927 52.043H73.4478L71.4942 57.9862H70.0197Z" fill="black"/>
<path d="M83.7236 57.9862H79.3599V50.3963H83.7236V51.7137H80.9617V53.3829H83.5365V54.7002H80.9617V56.6613H83.7236V57.9862Z" fill="black"/>
<path d="M87.8418 57.9862V50.3963H92.6322V51.7287H89.4436V53.308H90.0798C90.7984 53.308 91.3841 53.4091 91.8388 53.6074C92.2973 53.8076 92.636 54.0827 92.8568 54.4308C93.0757 54.7751 93.1861 55.1699 93.1861 55.6134C93.1861 56.3675 92.9354 56.9513 92.4376 57.3649C91.938 57.7803 91.1427 57.9862 90.0499 57.9862H87.8418ZM89.4436 56.6688H89.99C90.4784 56.6688 90.862 56.5921 91.1427 56.4368C91.4215 56.2777 91.5619 56.0026 91.5619 55.6134C91.5619 55.2092 91.4084 54.9454 91.1053 54.82C90.8003 54.6909 90.3867 54.6254 89.8628 54.6254H89.4436V56.6688Z" fill="black"/>
<path d="M103.155 57.9862H101.553V51.7362H99.6895C99.6484 52.0618 99.6035 52.4154 99.5548 52.799C99.5099 53.1845 99.4594 53.5737 99.4051 53.9667C99.3546 54.3559 99.3003 54.7283 99.2404 55.082C99.1843 55.4319 99.13 55.7406 99.0758 56.0101C98.9803 56.4499 98.855 56.826 98.7015 57.1403C98.5518 57.451 98.3441 57.6868 98.0803 57.8514C97.8145 58.0105 97.4702 58.0909 97.0473 58.0909C96.7666 58.0909 96.5103 58.0535 96.2764 57.9787V56.6613C96.3699 56.6969 96.4598 56.7249 96.5458 56.7436C96.6356 56.7586 96.7348 56.7661 96.8452 56.7661C97.0492 56.7661 97.2064 56.6594 97.3168 56.4442C97.4253 56.2253 97.5376 55.8192 97.6536 55.2242C97.6929 54.9959 97.7509 54.6403 97.8258 54.1613C97.9044 53.6785 97.9923 53.1115 98.0877 52.4622C98.1869 51.8147 98.2786 51.1261 98.3647 50.3963H103.155V57.9862Z" fill="black"/>
<path d="M110.436 57.9862H106.978V57.073L107.906 56.6463V51.7362L106.978 51.3095V50.3963H110.436V51.3095L109.508 51.7362V56.6463L110.436 57.073V57.9862Z" fill="black"/>
<path d="M114.264 50.3963H116.621C117.628 50.3963 118.392 50.5385 118.912 50.823C119.43 51.1074 119.69 51.607 119.69 52.32C119.69 52.7541 119.587 53.1209 119.383 53.4203C119.183 53.7159 118.897 53.8956 118.523 53.9592V54.0116C118.772 54.0677 119.002 54.1576 119.211 54.2811C119.421 54.4064 119.586 54.5917 119.705 54.835C119.825 55.0745 119.885 55.3926 119.885 55.7856C119.885 56.4742 119.634 57.0131 119.136 57.4023C118.637 57.7915 117.958 57.9862 117.1 57.9862H114.264V50.3963ZM115.865 53.4053H116.801C117.269 53.4053 117.595 53.3342 117.774 53.1882C117.954 53.0442 118.044 52.8271 118.044 52.5371C118.044 52.2433 117.935 52.0337 117.722 51.9083C117.512 51.7792 117.177 51.7137 116.719 51.7137H115.865V53.4053ZM115.865 54.6778V56.6613H116.921C117.4 56.6613 117.733 56.5677 117.924 56.3769C118.118 56.1879 118.216 55.939 118.216 55.6284C118.216 55.3439 118.118 55.1156 117.924 54.9397C117.729 54.7657 117.377 54.6778 116.868 54.6778H115.865Z" fill="black"/>
<path d="M25.9849 6.89757V3.10266H28.8292V6.89757H28.3576V3.52182H26.4639V6.89757H25.9849Z" fill="black"/>
<path d="M32.566 3.10266C33.06 3.10266 33.4193 3.19997 33.6438 3.39458C33.8721 3.58919 33.9881 3.86426 33.9881 4.21793C33.9881 4.42751 33.9395 4.62586 33.8459 4.80925C33.7561 4.98889 33.5989 5.13672 33.3744 5.25086C33.1536 5.36688 32.8542 5.42302 32.4762 5.42302H32.042V6.89757H31.563V3.10266H32.566ZM32.5211 3.51434H32.042V5.01134H32.4238C32.783 5.01134 33.0488 4.95521 33.2247 4.83919C33.4043 4.71943 33.4941 4.52107 33.4941 4.24039C33.4941 3.99712 33.4137 3.81374 33.2546 3.69398C33.0993 3.57422 32.8542 3.51434 32.5211 3.51434Z" fill="black"/>
<path d="M38.8518 6.89754L38.3952 5.72239H36.8907L36.4416 6.89754H35.9551L37.4371 3.08766H37.8712L39.3458 6.89754H38.8518ZM38.253 5.29575L37.8263 4.15054C37.8151 4.1206 37.7983 4.0682 37.7739 3.99335C37.7477 3.9185 37.7234 3.84178 37.6991 3.76131C37.6785 3.68272 37.6617 3.62284 37.6467 3.58167C37.6168 3.69208 37.5868 3.79874 37.5569 3.90353C37.5269 4.00832 37.5007 4.09066 37.482 4.15054L37.0479 5.29575H38.253Z" fill="black"/>
<path d="M44.8689 6.47841V7.89308H44.4123V6.89757H41.5605V3.10266H42.0396V6.47092H43.9333V3.10266H44.4049V6.47841H44.8689Z" fill="black"/>
<path d="M51.9374 4.99635C51.9374 5.39118 51.8719 5.73549 51.7428 6.02928C51.6174 6.31933 51.4303 6.54575 51.1814 6.71042C50.9307 6.87135 50.6238 6.94994 50.2608 6.94994C49.9015 6.94994 49.5965 6.87509 49.3476 6.72539C49.1024 6.57569 48.9153 6.36611 48.7862 6.09665C48.6552 5.82344 48.5841 5.50159 48.5691 5.13108H47.6709V6.89754H47.1919V3.10263H47.6709V4.70443H48.5766C48.601 4.37135 48.6777 4.07943 48.8087 3.82868C48.9434 3.5798 49.1305 3.38706 49.37 3.25233C49.6096 3.11386 49.9033 3.04275 50.2533 3.04275C50.6163 3.04275 50.9232 3.12509 51.1739 3.28976C51.4228 3.45069 51.6118 3.67711 51.7428 3.9709C51.8719 4.26094 51.9374 4.60338 51.9374 4.99635ZM49.0706 4.99635C49.0706 5.47539 49.1623 5.85338 49.3476 6.12659C49.5366 6.40166 49.836 6.53826 50.2458 6.53826C50.6593 6.53826 50.9606 6.40166 51.1515 6.12659C51.3405 5.85338 51.4359 5.47539 51.4359 4.99635C51.4359 4.5173 51.3405 4.14305 51.1515 3.87359C50.9662 3.60039 50.6687 3.46191 50.2608 3.46191C49.8453 3.46191 49.5441 3.60039 49.3551 3.87359C49.1642 4.14867 49.0706 4.52292 49.0706 4.99635Z" fill="black"/>
<path d="M56.1235 3.4694C55.7493 3.4694 55.4443 3.57419 55.2104 3.78377C54.9802 3.99335 54.8436 4.30398 54.7987 4.71191H56.6475V5.13108H54.7912C54.8062 5.58018 54.9222 5.92823 55.143 6.1715C55.3676 6.41102 55.6932 6.53078 56.1235 6.53078C56.2976 6.53078 56.4622 6.51955 56.6176 6.49335C56.771 6.46341 56.9244 6.42599 57.0741 6.38108V6.80024C56.7991 6.89941 56.4604 6.94994 56.0562 6.94994C55.6464 6.94994 55.3095 6.87135 55.0457 6.71042C54.7856 6.54575 54.5929 6.31933 54.4694 6.02928C54.344 5.73549 54.2822 5.39118 54.2822 4.99635C54.2822 4.60712 54.3515 4.26843 54.4918 3.97838C54.6359 3.68459 54.8455 3.45443 55.1205 3.28976C55.3938 3.12509 55.7306 3.04275 56.131 3.04275C56.3649 3.04275 56.5689 3.06521 56.7448 3.11012C56.9188 3.15129 57.0779 3.20555 57.2238 3.27479L57.0292 3.68647C56.9039 3.62659 56.7673 3.57793 56.6176 3.53677C56.4679 3.49186 56.3032 3.4694 56.1235 3.4694Z" fill="black"/>
<path d="M61.264 6.89757L60.014 3.57422H59.9916C60.001 3.68462 60.0084 3.83245 60.014 4.01583C60.0234 4.20109 60.029 4.3957 60.029 4.59967V6.89757H59.5874V3.10266H60.291L61.4661 6.20895H61.4811L62.6712 3.10266H63.3748V6.89757H62.9033V4.56224C62.9033 4.37886 62.9051 4.19548 62.9108 4.01583C62.9201 3.83619 62.9295 3.69024 62.9407 3.57422H62.9182L61.6533 6.89757H61.264Z" fill="black"/>
<path d="M69.4097 4.99635C69.4097 5.39118 69.3424 5.73549 69.2076 6.02928C69.0766 6.31933 68.882 6.54575 68.6238 6.71042C68.3637 6.87135 68.0437 6.94994 67.6657 6.94994C67.2709 6.94994 66.9415 6.87135 66.6777 6.71042C66.4176 6.54575 66.223 6.31745 66.0939 6.0218C65.9685 5.72801 65.9067 5.3837 65.9067 4.98886C65.9067 4.60525 65.9685 4.26843 66.0939 3.97838C66.223 3.68459 66.4176 3.45443 66.6777 3.28976C66.9415 3.12509 67.2709 3.04275 67.6657 3.04275C68.0437 3.04275 68.3637 3.12509 68.6238 3.28976C68.882 3.45069 69.0766 3.67711 69.2076 3.9709C69.3424 4.26094 69.4097 4.60338 69.4097 4.99635ZM66.4157 4.99635C66.4157 5.47539 66.5149 5.85338 66.7151 6.12659C66.9191 6.40166 67.2353 6.53826 67.6657 6.53826C68.0942 6.53826 68.4086 6.40166 68.6088 6.12659C68.8072 5.85338 68.9082 5.47539 68.9082 4.99635C68.9082 4.5173 68.8072 4.14305 68.6088 3.87359C68.4086 3.60039 68.0942 3.46191 67.6657 3.46191C67.2353 3.46191 66.9191 3.60039 66.7151 3.87359C66.5149 4.14305 66.4157 4.5173 66.4157 4.99635Z" fill="black"/>
<path d="M77.1193 3.99341C77.1193 4.2479 77.037 4.45374 76.8723 4.60718C76.7114 4.75688 76.498 4.85232 76.2286 4.89161V4.91407C76.5429 4.95898 76.7825 5.0619 76.9471 5.22096C77.1155 5.37627 77.2016 5.57837 77.2016 5.82724C77.2016 6.15658 77.0744 6.42605 76.8199 6.63563C76.5654 6.84521 76.1837 6.95 75.6747 6.95C75.4651 6.95 75.2667 6.93503 75.0834 6.90509C74.8981 6.87515 74.726 6.82088 74.5669 6.74042V6.30628C74.7316 6.39236 74.9112 6.45599 75.1058 6.5009C75.3042 6.54206 75.4913 6.56078 75.6672 6.56078C76.0059 6.56078 76.2623 6.49715 76.4382 6.36617C76.6122 6.23705 76.7001 6.05741 76.7001 5.82724C76.7001 5.58398 76.5972 5.40621 76.3932 5.29581C76.1874 5.18727 75.9011 5.13114 75.5325 5.13114H74.9935V4.73443H75.51C75.8843 4.73443 76.1631 4.67268 76.3483 4.5473C76.5317 4.4238 76.6253 4.25352 76.6253 4.03832C76.6253 3.84932 76.5542 3.70149 76.4157 3.5967C76.2754 3.49191 76.0901 3.43952 75.8618 3.43952C75.6223 3.43952 75.4221 3.4732 75.263 3.53682C75.1077 3.5967 74.958 3.6753 74.8139 3.76886L74.5819 3.43952C74.7316 3.33099 74.9131 3.23742 75.1283 3.16257C75.3472 3.08772 75.5942 3.0503 75.8693 3.0503C76.2772 3.0503 76.5879 3.14012 76.7974 3.31976C77.0108 3.49566 77.1193 3.72021 77.1193 3.99341Z" fill="black"/>
<path d="M82.276 6.68054C82.276 6.47096 82.3079 6.28009 82.3733 6.10419C82.4426 5.92455 82.5249 5.76549 82.6204 5.62515C82.7139 5.48106 82.8393 5.31452 82.9946 5.12365C83.1537 4.9253 83.2809 4.75688 83.3763 4.62215C83.4699 4.48368 83.5504 4.32275 83.6159 4.14311C83.6795 3.96347 83.7132 3.76886 83.7132 3.55928C83.7132 3.43578 83.6945 3.34034 83.6608 3.27485C83.6252 3.20561 83.5597 3.17006 83.4662 3.17006C83.3165 3.17006 83.2416 3.30479 83.2416 3.57425V4.13563H82.276L82.2686 3.85119C82.2686 3.50688 82.3022 3.22245 82.3733 2.9979C82.4426 2.77335 82.5642 2.60494 82.7401 2.48892C82.9198 2.36916 83.1668 2.30928 83.4811 2.30928C83.8591 2.30928 84.1548 2.41781 84.3644 2.63113C84.5739 2.84633 84.6787 3.15134 84.6787 3.54431C84.6787 3.79506 84.6432 4.02148 84.5739 4.22545C84.5084 4.43128 84.4242 4.61093 84.3195 4.76437C84.2184 4.91407 84.0874 5.09184 83.9227 5.29581C83.803 5.44176 83.7019 5.57088 83.6233 5.68503C83.5429 5.80105 83.4699 5.91706 83.4063 6.03682H84.6488V6.8976H82.276V6.68054Z" fill="black"/>
<path d="M87.7471 6.94251C87.3616 6.94251 87.0659 6.83398 86.8564 6.61317C86.6468 6.39423 86.542 6.08173 86.542 5.67754V3.61916C86.542 3.18503 86.6412 2.85569 86.8414 2.63113C87.0454 2.40284 87.3466 2.28682 87.7471 2.28682C88.1513 2.28682 88.4525 2.40284 88.6528 2.63113C88.8567 2.85569 88.9597 3.18503 88.9597 3.61916V5.67754C88.9597 6.08735 88.8549 6.40172 88.6453 6.62066C88.4357 6.83585 88.1363 6.94251 87.7471 6.94251ZM87.7471 6.0967C87.8163 6.0967 87.8706 6.06676 87.9118 6.00688C87.9567 5.947 87.9791 5.8759 87.9791 5.78982V3.53682C87.9791 3.40209 87.9641 3.30292 87.9342 3.23742C87.9043 3.16819 87.8406 3.13263 87.7471 3.13263C87.6573 3.13263 87.5974 3.16819 87.5674 3.23742C87.5412 3.30292 87.53 3.40209 87.53 3.53682V5.78982C87.53 5.8759 87.5487 5.947 87.5899 6.00688C87.6292 6.06676 87.6816 6.0967 87.7471 6.0967Z" fill="black"/>
<path d="M91.3841 3.37958C91.3243 3.45443 91.2382 3.51431 91.1296 3.55922C91.0192 3.60413 90.9163 3.62659 90.8228 3.62659V2.90054C90.9762 2.87621 91.1315 2.81446 91.2868 2.71341C91.4403 2.61424 91.5507 2.48512 91.6162 2.32419H92.3497V6.89754H91.3841V3.37958Z" fill="black"/>
<path d="M94.8358 3.37958C94.7759 3.45443 94.6898 3.51431 94.5813 3.55922C94.4709 3.60413 94.368 3.62659 94.2744 3.62659V2.90054C94.4279 2.87621 94.5832 2.81446 94.7385 2.71341C94.8919 2.61424 95.0023 2.48512 95.0678 2.32419H95.8014V6.89754H94.8358V3.37958Z" fill="black"/>
</svg>
